<?xml version="1.0" standalone="no"?>
<!DOCTYPE svg PUBLIC "-//W3C//DTD SVG 20010904//EN"
 "http://www.w3.org/TR/2001/REC-SVG-20010904/DTD/svg10.dtd">
<svg version="1.0" xmlns="http://www.w3.org/2000/svg"
 width="198.000000pt" height="181.000000pt" viewBox="0 0 198.000000 181.000000"
 preserveAspectRatio="xMidYMid meet">

<g transform="translate(0.000000,181.000000) scale(0.100000,-0.100000)"
fill="#000000" stroke="none">
<path d="M949 1749 c-90 -8 -199 -39 -284 -81 -456 -229 -603 -804 -314 -1225
251 -364 764 -464 1136 -221 251 164 397 448 380 738 -30 486 -430 829 -918
789z m251 -41 c193 -36 394 -176 510 -354 92 -140 125 -260 124 -444 0 -125
-3 -142 -33 -230 -73 -214 -200 -366 -392 -469 -130 -70 -202 -86 -374 -86
-129 0 -160 3 -225 23 -203 64 -360 188 -470 372 -255 425 -41 998 434 1161
135 47 276 56 426 27z"/>
<path d="M844 1660 c-368 -96 -615 -459 -566 -830 52 -389 370 -670 757 -670
387 0 705 281 757 670 31 233 -51 463 -227 636 -95 93 -216 162 -341 194 -103
27 -280 27 -380 0z m256 -740 l0 -410 -45 0 -45 0 0 410 0 410 45 0 45 0 0
-410z m-200 5 l0 -275 -45 0 -45 0 0 275 0 275 45 0 45 0 0 -275z m408 -2 l2
-273 -50 0 -50 0 0 268 c0 148 3 272 7 276 4 4 25 6 48 4 l40 -3 3 -272z
m-608 -3 l0 -120 -45 0 -45 0 0 120 0 120 45 0 45 0 0 -120z m810 0 l0 -120
-45 0 -45 0 0 120 0 120 45 0 45 0 0 -120z"/>
</g>
</svg>
